<?xml version="1.0" encoding="UTF-8"?>
<svg version="1.1" xmlns="http://www.w3.org/2000/svg" width="714" height="544">
<path d="M0 0 C1.40677766 1.17451418 2.80243727 2.36245493 4.1875 3.5625 C5.39986328 4.54283203 5.39986328 4.54283203 6.63671875 5.54296875 C25.45174596 21.36142195 32.60750042 44.82379541 39.30273438 67.59521484 C44.58703713 85.3174598 51.78826893 102.21466931 62.1875 117.5625 C64.03443346 120.51909817 65.87227223 123.48114804 67.70703125 126.4453125 C69.01594587 128.67535575 69.01594587 128.67535575 71.1875 129.5625 C72.06843221 131.11294069 72.94397829 132.66656447 73.80078125 134.23046875 C75.53204366 137.14191567 77.47765154 139.86232205 79.4375 142.625 C90.85212326 158.91111644 99.22850063 176.02461058 103.1875 195.5625 C103.44805176 196.77329224 103.44805176 196.77329224 103.71386719 198.00854492 C105.20794108 205.42015109 105.60911351 212.70351392 105.8125 220.25 C105.85117187 221.44044922 105.88984375 222.63089844 105.9296875 223.85742188 C106.02290995 226.75897053 106.10871348 229.66052966 106.1875 232.5625 C106.8673999 232.44656494 107.5472998 232.33062988 108.24780273 232.21118164 C111.37309219 231.67981073 114.49903491 231.15238115 117.625 230.625 C119.22891602 230.35139648 119.22891602 230.35139648 120.86523438 230.07226562 C125.70762799 229.25779575 130.52368068 228.49084093 135.41015625 227.99609375 C138.97357716 227.98370815 138.97357716 227.98370815 140.1875 226.5625 C142.60337756 226.18562922 145.00183395 225.86816398 147.4296875 225.58984375 C148.17660858 225.50220261 148.92352966 225.41456146 149.69308472 225.32426453 C152.14870489 225.04122068 154.60526389 224.76864342 157.0625 224.5 C157.89817505 224.40845642 158.7338501 224.31691284 159.59484863 224.22259521 C180.16736964 222.01033184 200.68565412 221.18099601 221.1875 224.5625 C222.47720703 224.76166016 222.47720703 224.76166016 223.79296875 224.96484375 C240.98817986 228.16041396 255.89707832 238.66790511 268.1875 250.5625 C270.24059816 252.36849962 272.31555647 254.14582469 274.39453125 255.921875 C276.1875 257.5625 276.1875 257.5625 277.63671875 259.265625 C284.47388787 267.23334965 295.61015392 270.8337704 305.1875 274.5625 C305.1875 275.2225 305.1875 275.8825 305.1875 276.5625 C306.1775 276.624375 306.1775 276.624375 307.1875 276.6875 C316.72952701 279.47059121 326.04783102 289.5341239 331.1875 297.765625 C336.53663936 308.20673356 338.12970998 319.67841534 335.0546875 331.19921875 C327.27460787 352.40168801 309.56717583 365.4947854 290.1875 375.5625 C286.90074063 377.03908891 283.56539438 378.31224039 280.1875 379.5625 C278.64522355 380.20687578 277.10357228 380.85274964 275.5625 381.5 C262.27648109 386.76504774 248.57993259 389.98507393 234.64746094 393.01904297 C231.46347892 393.72245146 228.29498728 394.48628636 225.125 395.25 C219.90178752 396.46692647 214.66856681 397.3134547 209.35546875 398.03515625 C206.08337704 398.53101207 206.08337704 398.53101207 202.52612305 399.51708984 C198.24669868 400.59951324 193.97520941 401.24946745 189.6015625 401.81640625 C188.81856781 401.92218491 188.03557312 402.02796356 187.22885132 402.13694763 C184.75728278 402.47055923 182.28500081 402.79837497 179.8125 403.125 C177.31862908 403.45554487 174.8249774 403.78744213 172.33187866 404.12376404 C170.78760262 404.33202791 169.2428715 404.53695065 167.69766235 404.73817444 C163.82131823 405.21927671 163.82131823 405.21927671 160.1875 406.5625 C157.72507414 406.88281404 155.27524242 407.15534264 152.8046875 407.39453125 C151.24373241 407.55304695 149.68277869 407.71157619 148.12182617 407.87011719 C147.29669525 407.95241577 146.47156433 408.03471436 145.62142944 408.11950684 C130.52502633 409.62678864 115.4674379 411.32037003 100.43115234 413.34301758 C93.94972166 414.19264172 87.72481008 414.76038614 81.1875 414.5625 C81.2342688 415.52893433 81.2342688 415.52893433 81.28198242 416.51489258 C81.72246364 427.39512562 79.31089928 437.17419804 72.1875 445.5625 C58.35793585 459.76583616 36.66267886 457.21544276 18.27734375 457.65625 C2.65120592 457.81115595 -12.92890209 456.38036882 -28 452.125 C-31.77480358 451.20061956 -31.77480358 451.20061956 -34.75 453 C-35.760625 453.845625 -36.77125 454.69125 -37.8125 455.5625 C-39.40586734 456.7233037 -41.01116117 457.86782999 -42.625 459 C-43.48867188 459.60714844 -44.35234375 460.21429688 -45.2421875 460.83984375 C-48.2260135 462.83964202 -51.29685964 464.55224995 -54.4609375 466.24609375 C-57.17508236 467.76547385 -59.76570916 469.43219561 -62.375 471.125 C-74.37687145 478.81893715 -74.37687145 478.81893715 -81.8125 479.5625 C-81.8125 480.2225 -81.8125 480.8825 -81.8125 481.5625 C-94.25717865 484.95160723 -106.46789255 484.99285147 -119.29418945 484.89868164 C-122.76732261 484.87488129 -126.23969537 484.87816677 -129.71289062 484.88476562 C-131.94271287 484.8791937 -134.17253193 484.87208688 -136.40234375 484.86328125 C-137.94316872 484.86464836 -137.94316872 484.86464836 -139.51512146 484.86604309 C-153.2265939 484.73158555 -153.2265939 484.73158555 -158.30859375 480.46875 C-158.94925781 479.6746875 -159.58992187 478.880625 -160.25 478.0625 C-160.90871094 477.2684375 -161.56742188 476.474375 -162.24609375 475.65625 C-164.71913592 472.35063753 -164.99869349 470.04834299 -165.23828125 465.92578125 C-163.8407336 458.16875072 -157.56201813 452.88679753 -152.1875 447.625 C-151.41148437 446.84576172 -150.63546875 446.06652344 -149.8359375 445.26367188 C-144.07980253 439.5625 -144.07980253 439.5625 -141.8125 439.5625 C-141.544375 438.964375 -141.27625 438.36625 -141 437.75 C-139.81332594 435.56402146 -138.71650887 434.14917406 -136.8125 432.5625 C-136.1525 432.5625 -135.4925 432.5625 -134.8125 432.5625 C-134.8125 431.9025 -134.8125 431.2425 -134.8125 430.5625 C-133.23828125 429.01171875 -133.23828125 429.01171875 -131.125 427.25 C-128.61447706 425.12605316 -126.20426579 423.00748656 -123.9375 420.625 C-121.8125 418.5625 -121.8125 418.5625 -119.8125 418.5625 C-119.8125 417.9025 -119.8125 417.2425 -119.8125 416.5625 C-120.47241943 416.57192627 -121.13233887 416.58135254 -121.81225586 416.59106445 C-138.03658561 416.72083627 -154.2429854 415.0420143 -170.18017578 412.05273438 C-173.35552379 411.46136925 -176.5350995 410.89536689 -179.71484375 410.328125 C-182.16422022 409.8862901 -184.61343932 409.44358194 -187.0625 409 C-188.23014893 408.79012451 -189.39779785 408.58024902 -190.60083008 408.36401367 C-191.7070874 408.1601001 -192.81334473 407.95618652 -193.953125 407.74609375 C-194.93829102 407.56618896 -195.92345703 407.38628418 -196.93847656 407.20092773 C-199.98683478 406.52377375 -202.85938158 405.5720277 -205.8125 404.5625 C-207.14778234 404.21734909 -208.4887282 403.89284294 -209.8359375 403.59765625 C-210.5475 403.43716797 -211.2590625 403.27667969 -211.9921875 403.11132812 C-213.44745874 402.78894152 -214.90318568 402.46860466 -216.359375 402.15039062 C-220.7281343 401.16071681 -224.81981993 399.88319851 -228.99072266 398.25170898 C-231.39099265 397.34364651 -233.82601841 396.6916098 -236.3125 396.0625 C-239.70902492 395.17930956 -242.89163926 394.17261351 -246.125 392.8125 C-253.47734598 390.32017933 -259.86806119 393.94607094 -266.8125 396.5625 C-270.73145062 397.86881687 -274.46251581 397.7052224 -278.546875 397.6953125 C-279.4170929 397.69626923 -280.28731079 397.69722595 -281.18389893 397.69821167 C-283.03324455 397.69889287 -284.88259255 397.69704278 -286.73193359 397.69287109 C-289.51014883 397.68759934 -292.28819658 397.69277739 -295.06640625 397.69921875 C-303.15648654 397.70411875 -311.247279 397.65814138 -319.328125 397.2421875 C-320.47055664 397.18530762 -321.61298828 397.12842773 -322.79003906 397.06982422 C-327.15492867 396.33717151 -329.82579721 394.41586458 -333.125 391.5625 C-335.63028824 387.10865425 -335.7883577 382.5565953 -334.8125 377.5625 C-328.48588994 367.94434282 -315.83071028 363.40460398 -305.77392578 358.51904297 C-302.7751035 357.0565852 -299.79456977 355.558816 -296.8125 354.0625 C-295.14583333 353.22916667 -293.47916667 352.39583333 -291.8125 351.5625 C-292.47252599 346.5129036 -293.9041546 342.01155224 -295.625 337.25 C-295.89417236 336.49452881 -296.16334473 335.73905762 -296.44067383 334.96069336 C-298.08422368 330.40422517 -299.89479501 325.98549954 -301.94921875 321.59765625 C-303.22760806 318.58389683 -304.07190196 315.47423996 -304.90625 312.3125 C-305.68859101 309.93849968 -306.58825169 307.77837478 -307.62109375 305.5078125 C-310.15124245 299.91996694 -312.25579764 294.19115228 -314.375 288.4375 C-317.29256114 280.44091559 -317.29256114 280.44091559 -320.52734375 272.5703125 C-323.2576523 266.18022866 -323.78543055 259.54267041 -322.125 252.75 C-317.46073715 244.97622858 -311.33863964 243.69631463 -302.8125 241.5625 C-301.61753906 241.26085937 -300.42257812 240.95921875 -299.19140625 240.6484375 C-289.3677892 238.42383004 -276.40143127 235.68472511 -266.9375 240.5 C-261.79075683 243.97962486 -257.30831708 248.29803929 -252.8125 252.5625 C-250.44173694 254.77539603 -248.06422662 256.98101245 -245.6875 259.1875 C-245.07946533 259.75331787 -244.47143066 260.31913574 -243.8449707 260.90209961 C-239.57124751 264.87509443 -235.24198613 268.76354571 -230.8125 272.5625 C-229.68462097 273.54395505 -228.55704657 274.52576023 -227.4296875 275.5078125 C-226.18251203 276.58879596 -224.93511439 277.66952314 -223.6875 278.75 C-223.10097656 279.26183838 -222.51445312 279.77367676 -221.91015625 280.30102539 C-219.16267985 282.66979349 -216.44887796 284.85594266 -213.3828125 286.80078125 C-212.11050781 287.67283203 -212.11050781 287.67283203 -210.8125 288.5625 C-210.8125 289.2225 -210.8125 289.8825 -210.8125 290.5625 C-210.02875 290.871875 -209.245 291.18125 -208.4375 291.5 C-205.8125 292.5625 -205.8125 292.5625 -203.8125 293.5625 C-196.37619294 294.13409535 -189.03565498 293.10021654 -181.6875 292.0625 C-180.635625 291.91941406 -179.58375 291.77632813 -178.5 291.62890625 C-175.93662438 291.27935503 -173.37424192 290.92379594 -170.8125 290.5625 C-171.34359375 289.38816406 -171.8746875 288.21382813 -172.421875 287.00390625 C-176.68746321 277.35567198 -180.00825178 268.05162564 -182.12109375 257.7109375 C-182.48316769 254.71217206 -182.48316769 254.71217206 -183.8125 253.5625 C-184.92709338 246.08216555 -184.96277009 238.6765441 -184.9375 231.125 C-184.94136719 229.94228516 -184.94523438 228.75957031 -184.94921875 227.54101562 C-184.94728516 225.85202148 -184.94728516 225.85202148 -184.9453125 224.12890625 C-184.94418457 223.10740479 -184.94305664 222.08590332 -184.94189453 221.03344727 C-184.8125 218.5625 -184.8125 218.5625 -183.8125 216.5625 C-183.81894531 215.64726562 -183.82539063 214.73203125 -183.83203125 213.7890625 C-183.81254735 210.57032252 -183.33214397 208.035636 -182.5 204.9375 C-181.28511908 200.37622915 -181.28511908 200.37622915 -180.19140625 195.78515625 C-176.82394531 180.87211495 -170.86303862 166.90871944 -163.78125 153.41943359 C-162.2514969 150.48714981 -160.78484702 147.52392525 -159.3125 144.5625 C-157.49112905 140.90312458 -155.65648871 137.25292933 -153.7734375 133.625 C-143.90566023 114.51252776 -140.13649123 95.6732464 -137.234375 74.5078125 C-136.60937156 70.14436253 -135.77369688 65.86323988 -134.8125 61.5625 C-134.44898438 59.81066406 -134.44898438 59.81066406 -134.078125 58.0234375 C-128.94814861 34.59860555 -117.05546897 12.46523966 -96.85546875 -1.25390625 C-90.1926819 -5.48015083 -83.23366395 -8.76967282 -75.8125 -11.4375 C-74.55877447 -11.99164668 -73.30841322 -12.55350502 -72.0625 -13.125 C-48.80609141 -22.51701116 -19.22314783 -14.55273516 0 0 Z " fill="#3E561F" transform="translate(349.8125,39.4375)"/>
<path d="M0 0 C0.68481445 0.21962402 1.36962891 0.43924805 2.07519531 0.66552734 C14.16314425 4.59926107 24.72747985 10.13959186 34 19 C34 19.66 34 20.32 34 21 C33.41847168 21.09498779 32.83694336 21.18997559 32.23779297 21.2878418 C21.08302679 23.12659948 9.97400094 25.10337154 -1.0625 27.5625 C-1.97080566 27.75996826 -2.87911133 27.95743652 -3.81494141 28.16088867 C-9.9838378 29.57050761 -15.2977168 30.7916326 -19.3125 36 C-21.74542993 40.32520877 -22.1826318 43.46834937 -22.25 48.375 C-22.27578125 49.49648438 -22.3015625 50.61796875 -22.328125 51.7734375 C-21.96680751 55.32639283 -21.12554458 57.16250117 -19 60 C-8.88191712 65.05904144 7.94294402 58.92478644 18.18945312 56.62744141 C20.44018398 56.1249763 22.6928717 55.65554556 24.953125 55.19921875 C30.61579832 53.86561815 35.3777065 51.86015707 40.4140625 48.9765625 C41.87162964 48.14233765 41.87162964 48.14233765 43.35864258 47.29125977 C45.29175688 46.15989499 47.20694992 44.99719261 49.1003418 43.80053711 C55.65903703 39.8923588 55.65903703 39.8923588 59.4453125 40.19628906 C61.79291677 40.93312116 63.83380198 41.8374015 66 43 C67.65128906 43.85464844 67.65128906 43.85464844 69.3359375 44.7265625 C92.09973667 58.94662213 92.09973667 58.94662213 96 70 C97.27958012 78.18125241 96.31277275 85.87756564 92 93 C89.24072673 96.59952348 86.22621087 99.81687709 83 103 C82.07380859 103.94166016 82.07380859 103.94166016 81.12890625 104.90234375 C71.34655341 114.17980096 58.53234968 119.36970281 46.13623047 124.15771484 C44.6731006 124.73460605 43.21915305 125.33518699 41.77392578 125.95556641 C34.50191341 129.03327935 27.03049882 130.99498998 19.375 132.875 C18.68990356 133.04541809 18.00480713 133.21583618 17.2989502 133.39141846 C1.65833804 137.26844797 -14.12580164 140.25410022 -30 143 C-30.95285889 143.16749756 -31.90571777 143.33499512 -32.88745117 143.50756836 C-42.49664193 145.15958064 -52.15390261 146.48704677 -61.8125 147.8125 C-63.22257324 148.00601044 -63.22257324 148.00601044 -64.66113281 148.20343018 C-80.24901604 150.3288425 -95.85854049 152.1909502 -111.5 153.875 C-112.9940184 154.0387059 -112.9940184 154.0387059 -114.51821899 154.20571899 C-134.75092224 156.40964182 -134.75092224 156.40964182 -145 156 C-150 147.5 -150 147.5 -150 143 C-147.71875 141.17578125 -147.71875 141.17578125 -144.5 139.3125 C-143.92338623 138.9729126 -143.34677246 138.6333252 -142.75268555 138.28344727 C-138.82597641 135.98803366 -134.84199142 133.7928664 -130.86767578 131.58129883 C-130.18946777 131.20384521 -129.51125977 130.8263916 -128.8125 130.4375 C-128.13687012 130.06197998 -127.46124023 129.68645996 -126.76513672 129.29956055 C-116.74826622 123.9580239 -116.74826622 123.9580239 -109 116 C-108.32329555 110.136743 -108.32329555 110.136743 -111.0625 105.125 C-121.87576953 97.3026348 -137.29654723 101.56101629 -149.5625 103.4375 C-152.62578949 103.89800288 -155.68971779 104.35411442 -158.75390625 104.80859375 C-159.47873199 104.91674408 -160.20355774 105.02489441 -160.9503479 105.13632202 C-166.29173014 105.92327322 -171.62205353 106.53258607 -177 107 C-177 109.31 -177 111.62 -177 114 C-157.2 113.01 -157.2 113.01 -137 112 C-140.47628867 115.47628867 -143.63221441 117.73233298 -147.8125 120.125 C-153.13456431 123.24151243 -158.32978656 126.4808468 -163.4375 129.9375 C-168.49967032 133.35895645 -173.61431718 136.66394304 -178.8125 139.875 C-186.95669847 144.91392162 -194.91331185 150.21887235 -202.86010742 155.56201172 C-209.30612383 159.89367591 -215.78191979 164.17191705 -222.3125 168.375 C-228.12726908 172.1268308 -233.90653661 175.92436708 -239.65234375 179.78125 C-242.31550569 181.55724768 -245.00087906 183.2970106 -247.69140625 185.03125 C-259.11698752 192.39427931 -259.11698752 192.39427931 -270.25 200.1875 C-276.97571862 205.07929065 -283.94279137 209.51615725 -291.05810547 213.81835938 C-292.91665584 214.94928517 -294.75729078 216.10542772 -296.59765625 217.265625 C-297.75171361 217.97021074 -298.90662095 218.67340675 -300.0625 219.375 C-301.04347656 219.98085938 -302.02445313 220.58671875 -303.03515625 221.2109375 C-316.94169334 228.06337837 -331.32050151 227.492586 -346.4375 227.25 C-348.63344713 227.22989089 -350.82941218 227.21164798 -353.02539062 227.1953125 C-358.35065814 227.15169831 -363.6752428 227.08514128 -369 227 C-369.64038086 225.18676758 -369.64038086 225.18676758 -370 223 C-368.26112746 220.68654349 -366.57471412 218.73781521 -364.5625 216.6875 C-364.05267578 216.14416016 -363.54285156 215.60082031 -363.01757812 215.04101562 C-359.54929921 211.40082697 -355.85580373 208.10486253 -352.05053711 204.82348633 C-348.5444824 201.70564818 -345.28414249 198.34828589 -342 195 C-337.43006238 190.34080579 -332.78930554 185.88083983 -327.84375 181.62109375 C-325.26929553 179.35753739 -322.8952606 176.95297773 -320.5 174.5 C-316.77257829 170.71583843 -312.94389387 167.13006901 -308.90234375 163.68359375 C-306.09970202 161.20322704 -303.51007702 158.52639322 -300.8984375 155.84765625 C-299.17667775 154.1719518 -297.41966855 152.74999828 -295.5 151.3125 C-292.79046686 149.25116471 -292.79046686 149.25116471 -292.4375 146.375 C-293.0982371 143.58522113 -293.55434608 142.51799209 -296 141 C-300.94184347 141.23491157 -303.80460958 144.02163933 -307.3125 147.1875 C-308.94586276 148.63430613 -310.58477512 150.07210776 -312.24145508 151.4921875 C-313.45841355 152.53563267 -314.6578619 153.59972041 -315.8425293 154.6796875 C-321.19904907 159.22338693 -325.27681243 159.88525254 -332.1875 159.625 C-333.20360352 159.6046167 -334.21970703 159.5842334 -335.26660156 159.56323242 C-374.60170248 158.3061968 -416.25802984 152.25204345 -453 138 C-448.55123944 134.16603936 -443.82310743 131.69443892 -438.61523438 129.08789062 C-434.22806461 126.82972304 -430.56676695 124.4364741 -427 121 C-426.16616698 117.41408529 -426.16616698 117.41408529 -427 114 C-428.9004467 112.15684329 -428.9004467 112.15684329 -431 111 C-431 110.34 -431 109.68 -431 109 C-452.45 109 -473.9 109 -496 109 C-502.80742812 90.84685835 -502.80742812 90.84685835 -505.0703125 84.5 C-505.57919314 83.08455129 -506.08831418 81.66918898 -506.59765625 80.25390625 C-507.36775565 78.1113427 -508.13631067 75.9682746 -508.90087891 73.82373047 C-512.51095985 63.62072399 -512.51095985 63.62072399 -517.09716797 53.83056641 C-518.93724378 50.09966094 -520.17309143 46.12309277 -521.5 42.1875 C-522.1033422 40.42029122 -522.70750317 38.65336176 -523.3125 36.88671875 C-523.59996094 36.04544434 -523.88742187 35.20416992 -524.18359375 34.33740234 C-525.50669974 30.54929924 -526.97035432 26.81557152 -528.46875 23.09375 C-529.09434369 20.62817488 -528.98350545 19.33833437 -528 17 C-521.8848208 13.38648502 -514.96086721 12.78658645 -508 12 C-507.15566406 11.89042969 -506.31132812 11.78085937 -505.44140625 11.66796875 C-500.06319557 11.26716622 -497.18494528 12.648401 -493.09765625 16.09375 C-492.40542969 16.7228125 -491.71320313 17.351875 -491 18 C-490.19433594 18.7115625 -489.38867188 19.423125 -488.55859375 20.15625 C-486.83828903 21.69007894 -485.12744747 23.23458137 -483.42578125 24.7890625 C-481.37073031 26.6621041 -479.29216001 28.49584609 -477.1875 30.3125 C-474.1891371 32.91793228 -471.27165855 35.59835103 -468.36816406 38.30810547 C-446.69293183 59.72157229 -446.69293183 59.72157229 -418.99389648 68.16723633 C-413.20447691 67.84384463 -407.55546409 66.61440706 -401.875 65.5 C-385.51710699 62.3111589 -385.51710699 62.3111589 -380 63 C-377.84765625 64.765625 -377.84765625 64.765625 -376.0625 67.25 C-369.90731651 74.75762 -362.05164905 79.70120306 -354 85 C-352.51886719 86.00740234 -352.51886719 86.00740234 -351.0078125 87.03515625 C-341.46607786 93.10591206 -330.7277873 96.63694426 -320 100 C-319.03304199 100.30921387 -318.06608398 100.61842773 -317.06982422 100.93701172 C-286.90080855 110.17405593 -251.34101388 108.79933375 -221 101 C-219.98228516 100.74299316 -218.96457031 100.48598633 -217.91601562 100.22119141 C-182.39471664 90.97770961 -152.33126852 72.03413741 -133.26464844 40.21972656 C-127.49123955 30.08616795 -123.8353011 19.27076214 -121 8 C-106.85906985 5.45881805 -92.69029252 3.12118729 -78.5 0.875 C-77.69592712 0.74712097 -76.89185425 0.61924194 -76.06341553 0.48748779 C-70.71201934 -0.36249196 -65.35770044 -1.19074262 -60 -2 C-59.32708923 -2.10318542 -58.65417847 -2.20637085 -57.96087646 -2.31268311 C-38.77358118 -5.22364113 -18.60739354 -6.23861674 0 0 Z " fill="#F4C13A" transform="translate(572,281)"/>
<path d="M0 0 C17.89217492 15.09013774 25.12413663 36.02060484 30.5625 58 C33.80734202 70.75379083 39.76269138 82.55795561 45.5625 94.3125 C45.9531665 95.11155762 46.34383301 95.91061523 46.74633789 96.73388672 C51.67957698 106.5882315 57.93431563 115.57728708 64.13191223 124.66215515 C77.053597 143.6267669 88.00919467 161.51941795 93.5625 184 C93.74506348 184.64517578 93.92762695 185.29035156 94.11572266 185.95507812 C96.0309104 193.28603892 96.04458973 200.71274456 96.0625 208.25 C96.06701675 209.30797791 96.06701675 209.30797791 96.07162476 210.3873291 C96.06822569 223.0296964 94.12489699 234.18570505 89.5625 246 C89.13324219 247.18464844 88.70398438 248.36929687 88.26171875 249.58984375 C79.2887311 272.76762618 61.9210155 289.99527476 40.5625 302 C39.9648584 302.33660645 39.3672168 302.67321289 38.75146484 303.02001953 C13.73547092 316.71808413 -20.95077687 321.02166369 -48.4765625 313.2578125 C-49.79935598 312.84643611 -51.11970846 312.42712829 -52.4375 312 C-53.4598877 311.67854004 -53.4598877 311.67854004 -54.50292969 311.35058594 C-83.09621017 302.14121712 -105.02226831 281.88219152 -118.85546875 255.44921875 C-126.126814 241.04901725 -130.45200922 226.51671016 -130.7109375 210.25 C-130.73027344 209.16080513 -130.73027344 209.16080513 -130.75 208.04960632 C-131.16212331 179.16349169 -124.6672951 156.06671236 -114.76171875 129.11328125 C-105.69057868 104.41688784 -101.25699386 81.22849758 -100.63671875 54.86328125 C-100.14934517 35.33871853 -97.98811254 16.92334906 -84.32421875 1.7890625 C-59.76255318 -21.50129533 -26.05647665 -20.01611161 0 0 Z " fill="#8CB335" transform="translate(343.4375,53)"/>
<path d="M0 0 C13.6622558 10.01642911 22.62341233 24.41080779 25.78125 41.0390625 C27.50674026 58.58935597 24.26059837 76.09463571 13.37109375 90.3046875 C4.5307215 101.02507128 -8.42402366 108.7947592 -22.21875 111.0390625 C-37.95338718 112.03886757 -50.23403343 109.52628283 -63.21875 100.0390625 C-63.85296875 99.58917969 -64.4871875 99.13929688 -65.140625 98.67578125 C-76.46984619 89.86705193 -83.75999353 76.03066505 -86.21875 62.0390625 C-87.86918296 42.89622372 -85.68146933 25.48362798 -72.9296875 10.31640625 C-53.18192843 -10.46575925 -24.75985949 -15.64130909 0 0 Z " fill="#856121" transform="translate(366.21875,224.9609375)"/>
<path d="M0 0 C1.01429962 3.04289886 1.08937085 4.98090743 1.02734375 8.15625 C1.00897461 9.69152344 1.00897461 9.69152344 0.99023438 11.2578125 C0.95558517 13.38809719 0.91665355 15.51831734 0.87304688 17.6484375 C0.79869505 24.66375095 1.48372409 31.14912016 3 38 C-6.1148134 38.92673135 -15.15415426 39.18299516 -24.3125 39.1875 C-25.61123047 39.19974609 -26.90996094 39.21199219 -28.24804688 39.22460938 C-37.35387746 39.23819341 -46.02311003 38.41706563 -55 37 C-55 36.34 -55 35.68 -55 35 C-53.12670898 33.64648438 -53.12670898 33.64648438 -50.49609375 32.09375 C-49.05472046 31.23281738 -49.05472046 31.23281738 -47.58422852 30.35449219 C-46.54580811 29.74250977 -45.5073877 29.13052734 -44.4375 28.5 C-37.55220265 24.38135659 -30.69958321 20.26013085 -24.0625 15.75 C-18.13728089 11.72471076 -12.10817994 7.8950599 -6.01196289 4.13378906 C-2.83499444 2.2934511 -2.83499444 2.2934511 0 0 Z " fill="#F4C23A" transform="translate(390,442)"/>
<path d="M0 0 C0.8470752 0.08991211 1.69415039 0.17982422 2.56689453 0.27246094 C5.40696991 0.59262396 8.2325002 0.97592206 11.0625 1.375 C12.01705078 1.50132812 12.97160156 1.62765625 13.95507812 1.7578125 C19.13359541 2.47258369 24.01829374 3.41082879 29 5 C26.51792851 7.90459646 23.97755408 9.02325808 20.44921875 10.41015625 C19.35802734 10.84263672 18.26683594 11.27511719 17.14257812 11.72070312 C15.43231445 12.38489258 15.43231445 12.38489258 13.6875 13.0625 C12.55892578 13.50916016 11.43035156 13.95582031 10.26757812 14.41601562 C7.18480442 15.62989179 4.10247567 16.8373799 1 18 C0.07985107 18.37294189 -0.84029785 18.74588379 -1.78833008 19.13012695 C-6.031357 20.27934056 -9.96168448 20.248813 -14.3359375 20.1953125 C-15.65496567 20.19106766 -15.65496567 20.19106766 -17.00064087 20.18673706 C-19.79223594 20.17559712 -22.5835029 20.15050411 -25.375 20.125 C-27.27473493 20.1149622 -29.17447492 20.10583775 -31.07421875 20.09765625 C-35.71627107 20.07567806 -40.35808002 20.0411911 -45 20 C-45 19.34 -45 18.68 -45 18 C-44.26998779 17.66790527 -43.53997559 17.33581055 -42.7878418 16.99365234 C-39.4191374 15.45828363 -36.05332022 13.91668051 -32.6875 12.375 C-31.53958984 11.85292969 -30.39167969 11.33085937 -29.20898438 10.79296875 C-23.70129844 8.26536217 -18.37080026 5.67286448 -13.14453125 2.6015625 C-8.42577324 -0.00378155 -5.29218654 -0.75054178 0 0 Z " fill="#EDC13A" transform="translate(79,402)"/>
<path d="M0 0 C3.75 0.5625 3.75 0.5625 5.75 2.5625 C5.75 8.45814667 2.74861435 12.51551532 -1.25 16.5625 C-10.93185821 23.79204544 -20.3077101 25.58276135 -32.25 24.5625 C-40.50801115 22.88326478 -46.671105 18.84028953 -52.25 12.5625 C-54.32264639 9.11902102 -54.51802432 6.58286484 -54.25 2.5625 C-52.71074037 1.02324037 -51.26427004 1.17041643 -49.125 1 C-45.96026738 1.00503137 -44.67441042 1.20072102 -42.23828125 3.27734375 C-41.06382273 4.68618444 -39.93285242 6.13279222 -38.85546875 7.6171875 C-36.1403413 10.90704996 -34.09305441 11.47897157 -29.859375 11.8984375 C-19.37162911 12.17194014 -19.37162911 12.17194014 -10.25 7.5625 C-9.22236403 6.33511893 -8.22239463 5.08409297 -7.25 3.8125 C-4.99203308 0.91560288 -3.70509958 0.07330233 0 0 Z " fill="#3E561F" transform="translate(348.25,160.4375)"/>
<path d="M0 0 C4.85738255 0.82328518 7.40853154 3.04962761 10.6875 6.625 C12.53496521 10.31993043 12.0294438 14.58384604 11.6875 18.625 C10.04580192 23.29087876 7.9951205 26.1361526 3.6875 28.625 C-0.57122385 29.47156174 -3.43006942 29.14294839 -7.1875 26.9375 C-11.15991557 22.61457717 -11.76588461 18.55803841 -11.6328125 12.8359375 C-11.129718 9.36335836 -9.53217992 7.27628435 -7.3125 4.625 C-6.714375 3.84125 -6.11625 3.0575 -5.5 2.25 C-3.3125 0.625 -3.3125 0.625 0 0 Z " fill="#3E551F" transform="translate(287.3125,117.375)"/>
<path d="M0 0 C3.4162552 0.77033206 5.41165589 2.10873659 7.9921875 4.44921875 C11.04666614 9.64183244 11.8322856 14.54642419 10.9921875 20.44921875 C8.91110642 24.98975929 8.91110642 24.98975929 5.9921875 26.44921875 C1.57353203 26.97876292 -1.92750343 27.03634324 -5.8828125 24.88671875 C-10.11129748 20.03639774 -11.67490567 14.95265245 -11.4140625 8.60546875 C-10.2662542 2.51325544 -6.35746227 -0.53978453 0 0 Z " fill="#3D541F" transform="translate(347.0078125,116.55078125)"/>
<path d="M0 0 C0.495 0.99 0.495 0.99 1 2 C-13.7066667 8.32810899 -28.90530029 12.05250013 -44.49169922 15.44775391 C-48.91752546 16.42217662 -53.32467559 17.47482498 -57.734375 18.51953125 C-60 19 -60 19 -62 19 C-62.33 18.01 -62.66 17.02 -63 16 C-57.68369619 14.42846945 -52.34526603 13.09276216 -46.9375 11.875 C-46.16083984 11.69324219 -45.38417969 11.51148438 -44.58398438 11.32421875 C-40.30338993 10.36008825 -36.41994352 9.78784271 -32 10 C-32 9.34 -32 8.68 -32 8 C-29.13975456 7.24902231 -26.28719338 6.6949995 -23.375 6.1875 C-18.70020629 5.27331812 -14.50438094 3.76350072 -10.12890625 1.90234375 C-6.56200523 0.3905013 -3.85011496 -0.10405716 0 0 Z " fill="#304915" transform="translate(629,417)"/>
<path d="M0 0 C0.75804932 0.03552979 1.51609863 0.07105957 2.29711914 0.10766602 C18.94409553 0.85949734 35.35799941 1.08518738 52 0 C51.67 1.32 51.34 2.64 51 4 C34.22775533 4.80819736 17.76053446 5.4071813 1 4 C0.67 2.68 0.34 1.36 0 0 Z " fill="#344C17" transform="translate(344,492)"/>
<path d="M0 0 C4.22721902 0.56051523 8.07537112 2.03307772 12.0625 3.5 C16.64618558 5.23296863 16.64618558 5.23296863 21.37109375 6.46875 C21.90863281 6.6440625 22.44617188 6.819375 23 7 C23.495 8.485 23.495 8.485 24 10 C18.48726584 9.76541557 13.8291206 9.1135182 8.75 6.875 C1.58729216 3.83223729 -3.35382741 6.37622845 -10.31640625 9.0625 C-12.87317639 9.95569481 -15.33532135 10.53741564 -18 11 C-17.47265625 9.19921875 -17.47265625 9.19921875 -16 7 C-13.46136374 5.76958265 -11.07685351 4.75600149 -8.4375 3.8125 C-3.87964502 2.44195358 -3.87964502 2.44195358 0 0 Z " fill="#2E4513" transform="translate(96,426)"/>
<path d="M0 0 C0.53625 0.2475 1.0725 0.495 1.625 0.75 C0.635 2.235 0.635 2.235 -0.375 3.75 C3.255 4.08 6.885 4.41 10.625 4.75 C10.625 5.08 10.625 5.41 10.625 5.75 C23.99 6.245 23.99 6.245 37.625 6.75 C37.625 7.08 37.625 7.41 37.625 7.75 C33.48479666 7.80039102 29.34476766 7.83617395 25.2043457 7.85986328 C23.80327232 7.86976486 22.40221867 7.88328969 21.0012207 7.90087891 C11.01690017 8.02285767 1.4939828 7.33110498 -8.375 5.75 C-8.375 5.09 -8.375 4.43 -8.375 3.75 C-3.23290173 -0.34030544 -3.23290173 -0.34030544 0 0 Z " fill="#C3B034" transform="translate(343.375,473.25)"/>
<path d="M0 0 C0.33 0.99 0.66 1.98 1 3 C-2.56173477 3.5055539 -6.12449819 4.00346114 -9.6875 4.5 C-10.69490234 4.64308594 -11.70230469 4.78617187 -12.74023438 4.93359375 C-13.71669922 5.06894531 -14.69316406 5.20429688 -15.69921875 5.34375 C-17.04246216 5.53227539 -17.04246216 5.53227539 -18.4128418 5.72460938 C-20.96397361 5.99616516 -23.4366743 6.04847897 -26 6 C-25.67 4.68 -25.34 3.36 -25 2 C-21.95872183 1.66274935 -18.91705809 1.33007668 -15.875 1 C-15.0190625 0.90460938 -14.163125 0.80921875 -13.28125 0.7109375 C-8.82977526 0.23154791 -4.48558075 -0.11765458 0 0 Z " fill="#2E4613" transform="translate(471,447)"/>
<path d="M0 0 C-0.66 1.65 -1.32 3.3 -2 5 C-8.06696699 5.77040851 -13.88514973 6.09706112 -20 6 C-19.67 4.68 -19.34 3.36 -19 2 C-16.39610703 1.66440045 -13.7919239 1.33143142 -11.1875 1 C-10.44951172 0.90460938 -9.71152344 0.80921875 -8.95117188 0.7109375 C-5.94569605 0.33015323 -3.03285559 0 0 0 Z " fill="#304614" transform="translate(512,441)"/>
<path d="M0 0 C4.11673761 3.67354815 6.88465171 8.10405684 9.875 12.6875 C10.37902344 13.45255859 10.88304687 14.21761719 11.40234375 15.00585938 C12.42084163 16.55184017 13.43736243 18.09912529 14.4519043 19.64770508 C16.51796762 22.78703959 18.61423981 25.90582226 20.71362305 29.02294922 C22.38773165 31.59591021 23.82381374 34.1633155 25 37 C24.67 37.66 24.34 38.32 24 39 C23.44054687 38.08863281 22.88109375 37.17726562 22.3046875 36.23828125 C16.57048854 26.95700461 10.61702529 17.84870531 4.47216797 8.83325195 C3.60035889 7.54294067 3.60035889 7.54294067 2.7109375 6.2265625 C1.92662354 5.07534912 1.92662354 5.07534912 1.12646484 3.90087891 C0 2 0 2 0 0 Z " fill="#364B1E" transform="translate(401,167)"/>
<path d="M0 0 C3.21365891 1.10815825 3.9914224 1.98529554 5.75 5 C7 8 7 8 7 10 C16.9 9.505 16.9 9.505 27 9 C24 12 24 12 21.08203125 12.29296875 C20.00308594 12.25816406 18.92414063 12.22335937 17.8125 12.1875 C16.72582031 12.16042969 15.63914062 12.13335937 14.51953125 12.10546875 C13.27236328 12.05326172 13.27236328 12.05326172 12 12 C12 12.33 12 12.66 12 13 C9.73828125 13.37109375 9.73828125 13.37109375 7 13 C4.98046875 10.41015625 4.98046875 10.41015625 3.1875 7.0625 C2.58292969 5.96035156 1.97835938 4.85820312 1.35546875 3.72265625 C0 1 0 1 0 0 Z " fill="#4E5E21" transform="translate(420,427)"/>
<path d="M0 0 C-1.44930671 3.59584747 -3.22752078 5.18832656 -6.4375 7.3125 C-7.21996094 7.84488281 -8.00242187 8.37726563 -8.80859375 8.92578125 C-11 10 -11 10 -14 9 C-12.63016497 5.83884224 -12.0109362 5.0072908 -9 3 C-8.01 3 -7.02 3 -6 3 C-6 2.34 -6 1.68 -6 1 C-4 0 -4 0 0 0 Z " fill="#334B16" transform="translate(313,492)"/>
<path d="M0 0 C2.67790416 4.72571322 3.11490472 9.68942832 4 15 C-1.61 15 -7.22 15 -13 15 C-11 13 -11 13 -7.9609375 12.8046875 C-6.18589844 12.83949219 -6.18589844 12.83949219 -4.375 12.875 C-2.59222656 12.90207031 -2.59222656 12.90207031 -0.7734375 12.9296875 C0.14179688 12.95289063 1.05703125 12.97609375 2 13 C1.67257812 12.08992188 1.34515625 11.17984375 1.0078125 10.2421875 C-0.10188432 6.67223262 -0.14864893 3.71622321 0 0 Z " fill="#E2C73A" transform="translate(389,465)"/>
<path d="M0 0 C11.92490746 1.300899 11.92490746 1.300899 17 3 C17.33 3.66 17.66 4.32 18 5 C11.50448709 6.20287276 6.39014027 5.58444052 0 4 C0 2.68 0 1.36 0 0 Z " fill="#2E4712" transform="translate(317,487)"/>
<path d="M0 0 C5.19209404 -0.21192221 9.126739 0.4087311 14 2 C13.67 2.99 13.34 3.98 13 5 C11.20793453 4.85915204 9.41635083 4.71216299 7.625 4.5625 C6.62726563 4.48128906 5.62953125 4.40007812 4.6015625 4.31640625 C2 4 2 4 0 3 C0 2.01 0 1.02 0 0 Z " fill="#324A17" transform="translate(153,443)"/>
<path d="M0 0 C0.33 0.66 0.66 1.32 1 2 C-9.37357631 6.59225513 -9.37357631 6.59225513 -15 6 C-14 3 -14 3 -12.109375 2.05078125 C-4.24325381 -0.41063747 -4.24325381 -0.41063747 0 0 Z " fill="#324B17" transform="translate(629,417)"/>
<path d="M0 0 C11.55 0.33 23.1 0.66 35 1 C35 1.33 35 1.66 35 2 C25.43 2.33 15.86 2.66 6 3 C6 2.67 6 2.34 6 2 C3.03 1.505 3.03 1.505 0 1 C0 0.67 0 0.34 0 0 Z " fill="#687226" transform="translate(215,439)"/>
<path d="M0 0 C1.32 0.33 2.64 0.66 4 1 C0.69984002 5.13937592 -2.17324411 8.58662205 -7 11 C-6.40716379 7.60807637 -5.23256811 5.7892243 -2.9375 3.25 C-2.38964844 2.63640625 -1.84179688 2.0228125 -1.27734375 1.390625 C-0.85582031 0.93171875 -0.43429687 0.4728125 0 0 Z " fill="#344A18" transform="translate(668,390)"/>
<path d="M0 0 C0.99 0.33 1.98 0.66 3 1 C0.69 3.31 -1.62 5.62 -4 8 C-4.99 7.34 -5.98 6.68 -7 6 C-5.90716423 4.96704564 -4.80029421 3.94892165 -3.6875 2.9375 C-3.07261719 2.36902344 -2.45773438 1.80054688 -1.82421875 1.21484375 C-0.92123047 0.61349609 -0.92123047 0.61349609 0 0 Z " fill="#E4BC38" transform="translate(216,490)"/>
<path d="M0 0 C4.62 0 9.24 0 14 0 C12.515 1.98 12.515 1.98 11 4 C8.30078125 4.171875 8.30078125 4.171875 5.3125 3.75 C4.31863281 3.62109375 3.32476562 3.4921875 2.30078125 3.359375 C1.54152344 3.24078125 0.78226563 3.1221875 0 3 C0 2.01 0 1.02 0 0 Z " fill="#274113" transform="translate(219,453)"/>
<path d="M0 0 C0 1.32 0 2.64 0 4 C-3.96 4 -7.92 4 -12 4 C-12 3.01 -12 2.02 -12 1 C-10.37512529 0.83211627 -8.75009558 0.66573213 -7.125 0.5 C-6.22007812 0.4071875 -5.31515625 0.314375 -4.3828125 0.21875 C-2 0 -2 0 0 0 Z " fill="#29420B" transform="translate(372,493)"/>
<path d="M0 0 C1.6045556 0.14148989 3.20863767 0.28835686 4.8125 0.4375 C5.70582031 0.51871094 6.59914062 0.59992188 7.51953125 0.68359375 C10 1 10 1 13 2 C13 2.66 13 3.32 13 4 C11.58344207 4.0272415 10.16672955 4.04650467 8.75 4.0625 C7.56664062 4.07990234 7.56664062 4.07990234 6.359375 4.09765625 C4.09308998 4.00385306 2.1711105 3.63241063 0 3 C0 2.01 0 1.02 0 0 Z " fill="#2E4616" transform="translate(173,447)"/>
<path d="M0 0 C-0.33 0.99 -0.66 1.98 -1 3 C-4.63 3.33 -8.26 3.66 -12 4 C-12 3.01 -12 2.02 -12 1 C-10.56496445 0.63597631 -9.12683494 0.28413409 -7.6875 -0.0625 C-6.88699219 -0.25972656 -6.08648438 -0.45695312 -5.26171875 -0.66015625 C-3 -1 -3 -1 0 0 Z " fill="#314B15" transform="translate(534,439)"/>
<path d="M0 0 C3.3 0.33 6.6 0.66 10 1 C10.33 2.65 10.66 4.3 11 6 C5.06 4.515 5.06 4.515 -1 3 C-0.67 2.01 -0.34 1.02 0 0 Z " fill="#304912" transform="translate(141,440)"/>
<path d="M0 0 C0 0.66 0 1.32 0 2 C-4.96073422 3.32286246 -9.91111512 3.08893197 -15 3 C-15 3.66 -15 4.32 -15 5 C-17.97 4.505 -17.97 4.505 -21 4 C-21 3.67 -21 3.34 -21 3 C-18.6263603 2.49265716 -16.25142575 1.99397614 -13.875 1.5 C-13.20984375 1.35691406 -12.5446875 1.21382813 -11.859375 1.06640625 C-7.83943578 0.2387717 -4.10095101 -0.15330658 0 0 Z " fill="#D1BB37" transform="translate(351,383)"/>
<path d="M0 0 C-1 2 -1 2 -3.50390625 2.8515625 C-5.01791016 3.23441406 -5.01791016 3.23441406 -6.5625 3.625 C-7.57441406 3.88539063 -8.58632813 4.14578125 -9.62890625 4.4140625 C-10.41136719 4.60742188 -11.19382812 4.80078125 -12 5 C-12.66666667 3.66666667 -13.33333333 2.33333333 -14 1 C-12.23103898 0.63659714 -10.45973374 0.28459117 -8.6875 -0.0625 C-7.70136719 -0.25972656 -6.71523438 -0.45695312 -5.69921875 -0.66015625 C-3 -1 -3 -1 0 0 Z " fill="#26490E" transform="translate(565,434)"/>
<path d="M0 0 C3.0625 -0.5 3.0625 -0.5 7 0 C9.00892192 1.85738686 10.6044496 3.86612336 12.2890625 6.01953125 C14.49881622 8.57739686 16.87704166 9.78128455 20 11 C17 12 17 12 15.09765625 11.1796875 C11.79600335 9.06308085 9.27941473 7.35126424 6.8125 4.25 C5.1619909 1.76426034 5.1619909 1.76426034 2.25 1.1875 C1.13625 1.0946875 1.13625 1.0946875 0 1 C0 0.67 0 0.34 0 0 Z " fill="#364B1E" transform="translate(297,162)"/>
<path d="M0 0 C3.96 0 7.92 0 12 0 C12 0.99 12 1.98 12 3 C8.7 3 5.4 3 2 3 C2 2.34 2 1.68 2 1 C1.34 0.67 0.68 0.34 0 0 Z " fill="#27400E" transform="translate(39,434)"/>
<path d="M0 0 C0.66 0.33 1.32 0.66 2 1 C1.67 1.99 1.34 2.98 1 4 C-2.3 4.33 -5.6 4.66 -9 5 C-9.33 4.01 -9.66 3.02 -10 2 C-7.03 2.495 -7.03 2.495 -4 3 C-4 2.34 -4 1.68 -4 1 C-2.68 1.33 -1.36 1.66 0 2 C0 1.34 0 0.68 0 0 Z " fill="#304613" transform="translate(264,518)"/>
<path d="M0 0 C1.27603607 3.82810821 0.86283987 7.23475107 0.5625 11.1875 C0.51029297 11.93708984 0.45808594 12.68667969 0.40429688 13.45898438 C0.27486216 15.30637082 0.13813482 17.15324371 0 19 C-0.33 19 -0.66 19 -1 19 C-1 14.05 -1 9.1 -1 4 C-2.65 4.33 -4.3 4.66 -6 5 C-5.195625 4.360625 -4.39125 3.72125 -3.5625 3.0625 C-1.7249496 1.59396498 -1.7249496 1.59396498 0 0 Z " fill="#CDB635" transform="translate(390,442)"/>
<path d="M0 0 C0.33 0 0.66 0 1 0 C1.25287193 6.06892629 0.69832609 11.16200408 -1 17 C-3.56687367 13.1496895 -2.83288724 11.41430237 -2 7 C-1.34 7 -0.68 7 0 7 C0 4.69 0 2.38 0 0 Z " fill="#82A832" transform="translate(438,269)"/>
<path d="M0 0 C3.99012371 0.55989303 6.5255052 1.75669768 9.8125 4.0625 C10.60269531 4.61035156 11.39289062 5.15820312 12.20703125 5.72265625 C12.79871094 6.14417969 13.39039063 6.56570313 14 7 C13.34 7.66 12.68 8.32 12 9 C11.67 8.01 11.34 7.02 11 6 C9.35 5.67 7.7 5.34 6 5 C6 4.34 6 3.68 6 3 C4.02 2.34 2.04 1.68 0 1 C0 0.67 0 0.34 0 0 Z " fill="#DEC73A" transform="translate(583,286)"/>
<path d="M0 0 C0.66 0.99 1.32 1.98 2 3 C1.125 6.6875 1.125 6.6875 0 10 C-0.66 10 -1.32 10 -2 10 C-2.33 10.99 -2.66 11.98 -3 13 C-2.52060632 8.28596212 -2.03165952 4.33420699 0 0 Z " fill="#84AB32" transform="translate(220,207)"/>
<path d="M0 0 C4.55384615 -0.36923077 4.55384615 -0.36923077 6.8125 1.5 C7.204375 1.995 7.59625 2.49 8 3 C3.59085217 4.10228696 -0.48382401 4.07654536 -5 4 C-5 3.67 -5 3.34 -5 3 C-3.35 2.67 -1.7 2.34 0 2 C0 1.34 0 0.68 0 0 Z " fill="#566523" transform="translate(519,275)"/>
<path d="M0 0 C3.97256398 2.09663099 6.43898489 4.30075595 9 8 C9 8.66 9 9.32 9 10 C8.34 10 7.68 10 7 10 C2 4.52380952 2 4.52380952 2 2 C1.34 2 0.68 2 0 2 C0 1.34 0 0.68 0 0 Z " fill="#DEC539" transform="translate(656,337)"/>
<path d="M0 0 C1.98 0 3.96 0 6 0 C5.67 1.32 5.34 2.64 5 4 C3.35 4 1.7 4 0 4 C0 2.68 0 1.36 0 0 Z " fill="#294411" transform="translate(435,450)"/>
<path d="M0 0 C0.66 0 1.32 0 2 0 C3.10228696 4.40914783 3.07654536 8.48382401 3 13 C2.67 13 2.34 13 2 13 C0.54815522 8.46298506 -0.23509196 4.81938524 0 0 Z " fill="#83A931" transform="translate(436,241)"/>
<path d="M0 0 C2.97 0 5.94 0 9 0 C9 0.33 9 0.66 9 1 C7.35 1.33 5.7 1.66 4 2 C4 2.66 4 3.32 4 4 C2.68 4 1.36 4 0 4 C0 2.68 0 1.36 0 0 Z " fill="#465C24" transform="translate(209,451)"/>
<path d="M0 0 C1.43655854 -0.08131463 2.8744483 -0.13933559 4.3125 -0.1875 C5.51326172 -0.23970703 5.51326172 -0.23970703 6.73828125 -0.29296875 C9.47851584 0.06198392 10.29171079 0.89366282 12 3 C10.56163249 2.88541307 9.12429034 2.75790884 7.6875 2.625 C6.88699219 2.55539062 6.08648437 2.48578125 5.26171875 2.4140625 C3 2 3 2 0 0 Z " fill="#C4B235" transform="translate(140,425)"/>
<path d="M0 0 C1.32 0 2.64 0 4 0 C3.67 1.32 3.34 2.64 3 4 C1.35 4 -0.3 4 -2 4 C-1.34 2.68 -0.68 1.36 0 0 Z " fill="#28410E" transform="translate(601,424)"/>
<path d="M0 0 C0.33 0.99 0.66 1.98 1 3 C-1.97 5.475 -1.97 5.475 -5 8 C-5 5 -5 5 -2.5 2.3125 C-1.675 1.549375 -0.85 0.78625 0 0 Z " fill="#495D1F" transform="translate(208,495)"/>
<path d="M0 0 C2.31 0 4.62 0 7 0 C5.515 1.98 5.515 1.98 4 4 C2.68 3.67 1.36 3.34 0 3 C0 2.01 0 1.02 0 0 Z " fill="#324C14" transform="translate(226,453)"/>
<path d="M0 0 C0 0.66 0 1.32 0 2 C-3.3 2.33 -6.6 2.66 -10 3 C-9 1 -9 1 -6.6875 -0.1875 C-3.88010429 -1.03624754 -2.698065 -0.99928333 0 0 Z " fill="#DEBE39" transform="translate(45,418)"/>
<path d="M0 0 C3.94139078 1.66751148 6.7892812 4.22710649 10 7 C9.34 7.66 8.68 8.32 8 9 C6.66368764 7.6905332 5.33102075 6.37734515 4 5.0625 C3.2575 4.33160156 2.515 3.60070312 1.75 2.84765625 C0 1 0 1 0 0 Z " fill="#354B1C" transform="translate(92,308)"/>
<path d="M0 0 C3.93846154 3.32307692 3.93846154 3.32307692 4.25 6.75 C4.1675 7.4925 4.085 8.235 4 9 C3.67 8.01 3.34 7.02 3 6 C2.01 6.33 1.02 6.66 0 7 C0 4.69 0 2.38 0 0 Z " fill="#1F350D" transform="translate(166,286)"/>
<path d="M0 0 C1.65 0 3.3 0 5 0 C5.33 1.32 5.66 2.64 6 4 C4.68 4 3.36 4 2 4 C1.34 2.68 0.68 1.36 0 0 Z " fill="#2D450F" transform="translate(202,451)"/>
<path d="M0 0 C1.98 0 3.96 0 6 0 C5.67 0.99 5.34 1.98 5 3 C3.35 3.33 1.7 3.66 0 4 C0 2.68 0 1.36 0 0 Z " fill="#264510" transform="translate(587,428)"/>
<path d="M0 0 C0 0.33 0 0.66 0 1 C-4.62 1.33 -9.24 1.66 -14 2 C-14 1.67 -14 1.34 -14 1 C-8.80451575 -1.20808081 -5.41735797 -0.93402724 0 0 Z " fill="#5F6B25" transform="translate(330,386)"/>
<path d="M0 0 C3.7910119 1.44950455 7.3874638 3.15172566 11 5 C8 6 8 6 5.95703125 5.22265625 C5.24933594 4.83980469 4.54164063 4.45695312 3.8125 4.0625 C3.09707031 3.68222656 2.38164062 3.30195313 1.64453125 2.91015625 C1.10183594 2.60980469 0.55914062 2.30945313 0 2 C0 1.34 0 0.68 0 0 Z " fill="#DFC63A" transform="translate(218,367)"/>
<path d="M0 0 C2.3431213 0.25561323 4.67843403 0.59270772 7 1 C7.33 1.66 7.66 2.32 8 3 C5.36 3.33 2.72 3.66 0 4 C0 2.68 0 1.36 0 0 Z " fill="#24390E" transform="translate(327,489)"/>
<path d="M0 0 C1.98 0.495 1.98 0.495 4 1 C4 1.99 4 2.98 4 4 C2.35 4 0.7 4 -1 4 C-0.67 2.68 -0.34 1.36 0 0 Z " fill="#475C25" transform="translate(441,449)"/>
<path d="M0 0 C-0.33 0.66 -0.66 1.32 -1 2 C-3.64860427 2.59355614 -6.29197322 2.74209269 -9 3 C-5.93488101 -0.06511899 -4.25015687 -1.41671896 0 0 Z " fill="#344D14" transform="translate(565,434)"/>
<path d="M0 0 C0.66 0 1.32 0 2 0 C2 0.66 2 1.32 2 2 C2.66 2.33 3.32 2.66 4 3 C2.02 3.66 0.04 4.32 -2 5 C-1.125 1.125 -1.125 1.125 0 0 Z " fill="#294113" transform="translate(612,421)"/>
<path d="M0 0 C0.99 0.33 1.98 0.66 3 1 C4.1875 4.0625 4.1875 4.0625 5 7 C4.01 7 3.02 7 2 7 C1.34 4.69 0.68 2.38 0 0 Z " fill="#81A631" transform="translate(218,292)"/>
<path d="M0 0 C0.66 0.33 1.32 0.66 2 1 C1.6875 3.875 1.6875 3.875 1 7 C0.01 7.66 -0.98 8.32 -2 9 C-1.34 6.03 -0.68 3.06 0 0 Z " fill="#D0B736" transform="translate(451,289)"/>
</svg>
